<?xml version="1.0" standalone="no"?>
<!DOCTYPE svg PUBLIC "-//W3C//DTD SVG 20010904//EN"
 "http://www.w3.org/TR/2001/REC-SVG-20010904/DTD/svg10.dtd">
<svg version="1.0" xmlns="http://www.w3.org/2000/svg"
 width="48.000000pt" height="51.000000pt" viewBox="0 0 48.000000 51.000000"
 preserveAspectRatio="xMidYMid meet">

<g transform="translate(0.000000,51.000000) scale(0.100000,-0.100000)"
fill="#000000" stroke="none">
<path d="M260 423 c19 -9 57 -21 83 -29 40 -10 46 -10 37 1 -19 23 -77 45
-117 44 l-38 -1 35 -15z"/>
<path d="M124 396 c-15 -11 -10 -14 32 -19 27 -3 78 -18 114 -32 35 -15 88
-29 117 -32 47 -5 53 -4 47 11 -4 11 -19 16 -50 16 -24 0 -73 11 -109 24 -105
40 -132 46 -151 32z"/>
<path d="M67 316 c-4 -10 8 -14 56 -14 45 0 80 -7 127 -27 76 -32 200 -47 200
-24 0 10 -17 14 -63 15 -46 1 -81 9 -134 33 -79 34 -176 43 -186 17z"/>
<path d="M69 253 c-21 -5 -11 -66 20 -116 33 -54 116 -92 183 -84 63 8 122 47
149 99 l19 38 -42 0 c-24 0 -88 16 -143 35 -92 32 -143 40 -186 28z"/>
</g>
</svg>
